<?xml version="1.0" encoding="UTF-8"?>
<svg width="25px" height="24px" viewBox="0 0 25 24" version="1.1" xmlns="http://www.w3.org/2000/svg" xmlns:xlink="http://www.w3.org/1999/xlink">
    <!-- Generator: sketchtool 64 (101010) - https://sketch.com -->
    <title>B1722B1A-C459-481A-90FA-F74497AF9DC9</title>
    <desc>Created with sketchtool.</desc>
    <defs>
        <filter x="-0.8%" y="-20.0%" width="101.5%" height="140.0%" filterUnits="objectBoundingBox" id="filter-1">
            <feOffset dx="0" dy="2" in="SourceAlpha" result="shadowOffsetOuter1"></feOffset>
            <feGaussianBlur stdDeviation="2" in="shadowOffsetOuter1" result="shadowBlurOuter1"></feGaussianBlur>
            <feColorMatrix values="0 0 0 0 0   0 0 0 0 0   0 0 0 0 0  0 0 0 0.4 0" type="matrix" in="shadowBlurOuter1" result="shadowMatrixOuter1"></feColorMatrix>
            <feMerge>
                <feMergeNode in="shadowMatrixOuter1"></feMergeNode>
                <feMergeNode in="SourceGraphic"></feMergeNode>
            </feMerge>
        </filter>
        <path d="M16.5,11.79 L16.5,15.79 L12,15.79 L12,11.79 L16.5,11.79 Z M4.5,11.7894737 L4.5,15.7894737 L0,15.7894737 L0,11.7894737 L4.5,11.7894737 Z M10.5,11.7894737 L10.5,15.7894737 L6,15.7894737 L6,11.7894737 L10.5,11.7894737 Z M4.5,6 L4.5,10 L0,10 L0,6 L4.5,6 Z M16.5,6 L16.5,10 L12,10 L12,6 L16.5,6 Z M10.5,5.89473684 L10.5,9.89473684 L6,9.89473684 L6,5.89473684 L10.5,5.89473684 Z M4.5,0 L4.5,4 L0,4 L0,0 L4.5,0 Z M10.5,0 L10.5,4 L6,4 L6,0 L10.5,0 Z M16.5,0 L16.5,4 L12,4 L12,0 L16.5,0 Z" id="path-2"></path>
    </defs>
    <g id="Main-Pages" stroke="none" stroke-width="1" fill="none" fill-rule="evenodd">
        <g id="ATVE-homepage-solid-headercinema-display" transform="translate(-218.000000, -20.000000)">
            <g id="Header/desktop/tlc/1600/sign-in" filter="url(#filter-1)">
                <g id="Shows" transform="translate(195.000000, 0.000000)">
                    <g id="browse-icon-center-right" transform="translate(0.000000, 8.000000)">
                        <g id="Browse" transform="translate(27.000000, 14.000000)">
                            <mask id="mask-3" fill="white">
                                <use xlink:href="#path-2"></use>
                            </mask>
                            <use id="Combined-Shape" fill="#FFFFFF" fill-rule="nonzero" xlink:href="#path-2"></use>
                            <g id="Color/Neutral-10-(FFFFFF)" mask="url(#mask-3)" fill="#FFFFFF">
                                <g transform="translate(-28.000000, -14.000000)" id="Rectangle">
                                    <rect x="0" y="0" width="44" height="44"></rect>
                                </g>
                            </g>
                        </g>
                    </g>
                </g>
            </g>
        </g>
    </g>
</svg>