<?xml version="1.0" encoding="UTF-8"?>
<svg width="32px" height="16px" viewBox="0 0 32 16" version="1.1" xmlns="http://www.w3.org/2000/svg" xmlns:xlink="http://www.w3.org/1999/xlink">
    <!-- Generator: sketchtool 64 (101010) - https://sketch.com -->
    <title>F6A66DA3-6E6D-4052-91A9-FC18F4B40439</title>
    <desc>Created with sketchtool.</desc>
    <g id="Main-Pages" stroke="none" stroke-width="1" fill="none" fill-rule="evenodd" opacity="0.5">
        <g id="ATVE-homepage-solid-headercinema-display" transform="translate(-316.000000, -744.000000)">
            <g id="carousel-playlist-container-desktop" transform="translate(68.000000, 526.000000)">
                <g id="Tile-/-16x9-/-Desktop-/-Standard-(Episode)" transform="translate(0.000000, 48.000000)">
                    <g id="thumbnailTile__info" transform="translate(0.000000, 170.000000)">
                        <g id="Network-Logo/Centered/White/TLC" transform="translate(248.000000, 0.000000)">
                            <g id="TLC" transform="translate(2.880000, 1.664000)">
                                <g id="T" transform="translate(0.000000, 0.017052)">
                                    <polygon id="Clip-3" points="8.79224158e-06 0.0192335778 8.21169866 0.0192335778 8.21169866 12.618996 8.79224158e-06 12.618996"></polygon>
                                    <path d="M6.48969549,4.54442242 C6.48969549,4.60029243 6.44331511,4.64590601 6.38733051,4.64590601 L5.02664321,4.64590601 C4.78839544,4.64590601 4.59588931,4.83923435 4.59588931,5.07817626 L4.59588931,9.36933745 C4.59588931,9.42567066 4.55089501,9.47095339 4.49475655,9.47095339 L3.5480959,9.47095339 C3.49195744,9.47095339 3.4467873,9.42567066 3.4467873,9.36933745 L3.4467873,5.07833066 C3.4467873,4.83938874 3.25505049,4.64621481 3.01618727,4.64621481 L1.59678977,4.64621481 C1.54157449,4.64621481 1.49550314,4.60044683 1.49550314,4.54442242 L1.49550314,3.59461012 C1.49550314,3.53922535 1.54157449,3.49389852 1.59678977,3.49389852 L6.38733051,3.49389852 C6.44344699,3.49389852 6.48997993,3.53922535 6.48969549,3.59447778 L6.48969549,4.54442242 Z M7.34328896,0.0192159323 L0.868858105,0.0192159323 C0.390955814,0.0192159323 8.79224158e-06,0.411541217 8.79224158e-06,0.88973384 L8.79224158e-06,11.7475738 C8.79224158e-06,12.2268251 0.390955814,12.618996 0.868858105,12.618996 L7.34328896,12.618996 C7.81969657,12.618996 8.21169866,12.2268251 8.21169866,11.7475738 L8.21169866,0.88973384 C8.21169866,0.411541217 7.81969657,0.0192159323 7.34328896,0.0192159323 L7.34328896,0.0192159323 Z" id="Fill-2" fill="#FFFFFF"></path>
                                </g>
                                <g id="L" transform="translate(8.990067, 0.017052)">
                                    <polygon id="Clip-6" points="0.00173866577 0.0192335778 8.21345051 0.0192335778 8.21345051 12.6190092 0.00173866577 12.6190092"></polygon>
                                    <path d="M5.93953505,9.36886544 C5.93953505,9.42519865 5.89559583,9.47112102 5.83868804,9.47112102 L3.69168859,9.47112102 C2.78545027,9.47112102 2.39325036,8.88855536 2.39325036,8.1316082 L2.39325036,3.59446895 C2.39325036,3.53906213 2.43888209,3.49375735 2.49484471,3.49375735 L3.44045029,3.49375735 C3.49658875,3.49375735 3.54158305,3.53921653 3.54158305,3.59446895 L3.54158305,7.76548646 C3.54158305,8.07084156 3.78763393,8.3179004 4.09241698,8.3179004 L5.83868804,8.3179004 C5.89574969,8.3179004 5.93953505,8.3648815 5.93953505,8.42059711 L5.93953505,9.36886544 Z M7.34501883,0.0192291664 L0.870609959,0.0192291664 C0.392685688,0.0192291664 0.00173866577,0.411532394 0.00173866577,0.889725017 L0.00173866577,11.747587 C0.00173866577,12.2268163 0.392685688,12.6190092 0.870609959,12.6190092 L7.34501883,12.6190092 C7.82142644,12.6190092 8.21345051,12.2268163 8.21345051,11.747587 L8.21345051,0.889725017 C8.21345051,0.411532394 7.82142644,0.0192291664 7.34501883,0.0192291664 L7.34501883,0.0192291664 Z" id="Fill-5" fill="#FFFFFF"></path>
                                </g>
                                <g id="C" transform="translate(17.980134, 0.017052)">
                                    <polygon id="Clip-9" points="0.00516983805 0.0192335778 8.21685531 0.0192335778 8.21685531 12.6190048 0.00516983805 12.6190048"></polygon>
                                    <path d="M5.5759341,5.09730838 C5.24857697,4.80432717 4.81566897,4.62524756 4.34266836,4.62524756 C3.31984491,4.62524756 2.48957156,5.45626164 2.48957156,6.48287591 C2.48957156,7.50739478 3.31984491,8.34070277 4.34266836,8.34070277 C4.81566897,8.34070277 5.24903856,8.16098352 5.5759341,7.86742883 L5.57485705,7.86925955 C5.61497165,7.83037331 5.68286974,7.83037331 5.72221502,7.86925955 L6.39172224,8.54016292 C6.42695714,8.57673318 6.42849579,8.63505151 6.3967558,8.67409214 C5.86104452,9.18042931 5.13768482,9.49268821 4.34233865,9.49268821 C2.68469338,9.49268821 1.34095312,8.14384534 1.34095312,6.48287591 C1.34095312,4.81948023 2.68469338,3.47138729 4.34233865,3.47138729 C5.13768482,3.47138729 5.85948389,3.78305065 6.3967558,4.2909318 C6.42849579,4.33133996 6.42695714,4.38859956 6.39172224,4.42532422 L5.72221502,5.09730838 C5.68286974,5.13634901 5.61497165,5.13634901 5.57485705,5.09638199 L5.5759341,5.09730838 Z M7.34847198,0.0192247551 L0.874041131,0.0192247551 C0.39611686,0.0192247551 0.00516983805,0.41155004 0.00516983805,0.889720606 L0.00516983805,11.7475826 C0.00516983805,12.2268119 0.39611686,12.6190048 0.874041131,12.6190048 L7.34847198,12.6190048 C7.82483563,12.6190048 8.2168597,12.2268119 8.2168597,11.7475826 L8.2168597,0.889720606 C8.2168597,0.41155004 7.82483563,0.0192247551 7.34847198,0.0192247551 L7.34847198,0.0192247551 Z" id="Fill-8" fill="#FFFFFF"></path>
                                </g>
                            </g>
                        </g>
                    </g>
                </g>
            </g>
        </g>
    </g>
</svg>