<?xml version="1.0" encoding="UTF-8"?>
<svg width="63px" height="27px" viewBox="0 0 63 27" version="1.1" xmlns="http://www.w3.org/2000/svg" xmlns:xlink="http://www.w3.org/1999/xlink">
    <!-- Generator: sketchtool 64 (101010) - https://sketch.com -->
    <title>A6CB0147-5189-4E6A-B435-C56519CFC4B0</title>
    <desc>Created with sketchtool.</desc>
    <defs>
        <filter x="-0.8%" y="-20.0%" width="101.5%" height="140.0%" filterUnits="objectBoundingBox" id="filter-1">
            <feOffset dx="0" dy="2" in="SourceAlpha" result="shadowOffsetOuter1"></feOffset>
            <feGaussianBlur stdDeviation="2" in="shadowOffsetOuter1" result="shadowBlurOuter1"></feGaussianBlur>
            <feColorMatrix values="0 0 0 0 0   0 0 0 0 0   0 0 0 0 0  0 0 0 0.4 0" type="matrix" in="shadowBlurOuter1" result="shadowMatrixOuter1"></feColorMatrix>
            <feMerge>
                <feMergeNode in="shadowMatrixOuter1"></feMergeNode>
                <feMergeNode in="SourceGraphic"></feMergeNode>
            </feMerge>
        </filter>
    </defs>
    <g id="Main-Pages" stroke="none" stroke-width="1" fill="none" fill-rule="evenodd">
        <g id="ATVE-homepage-solid-headercinema-display" transform="translate(-1410.000000, -19.000000)" fill="#FFFFFF" fill-rule="nonzero">
            <g id="Header/desktop/tlc/1600/sign-in" filter="url(#filter-1)">
                <g id="nav-item-sign-in" transform="translate(1395.000000, 0.000000)">
                    <g id="Xfinity" transform="translate(19.000000, 21.000000)">
                        <g id="Group">
                            <path d="M9.59871919,4.74246305 L8.15706898,4.74246305 C7.51197043,4.74246305 7.09472909,4.97004926 6.75334973,5.42549261 L4.93211823,7.87258618 L3.16805419,5.42549261 C2.82667488,4.97004926 2.40916256,4.74246305 1.76433497,4.74246305 L0.322684729,4.74246305 L3.7370197,9.37113301 L0,14.4170444 L1.36605911,14.4170444 C2.0108867,14.4170444 2.42812808,14.1894581 2.76977832,13.7340148 L4.93211823,10.8696798 L9.99699505,17.8695813 C10.3196798,18.3247537 10.7558867,18.5523399 11.4009852,18.5523399 L12.8805665,18.5523399 L6.14618226,9.37113301 L9.59871919,4.74246305" id="Fill-2"></path>
                            <polygon id="Fill-3" points="33.7851724 14.4170444 35.7391626 14.4170444 35.7391626 4.74246305 33.7851724 4.74246305"></polygon>
                            <polygon id="Fill-4" points="18.2868226 14.4170444 20.2408128 14.4170444 20.2408128 4.74246305 18.2868226 4.74246305"></polygon>
                            <path d="M53.9311576,4.74246305 C53.2860591,4.74246305 52.7929556,4.93211823 52.5271675,5.42549261 L49.7386946,10.6041626 L47.329532,5.42549261 C47.0829803,4.91315271 46.5709113,4.74246305 45.9258128,4.74246305 L44.9014039,4.74246305 L48.6194581,12.6337438 L45.3758128,18.5523399 L46.4378818,18.5523399 C47.1019458,18.5523399 47.6329803,18.3437192 47.917734,17.8316503 L54.9934975,4.74246305 L53.9311576,4.74246305" id="Fill-5"></path>
                            <path d="M27.5631281,4.53384237 C26.3300986,4.53384237 25.3056897,4.97004926 24.5281034,5.69100986 L24.5281034,4.74246305 L22.5741133,4.74246305 L22.5741133,14.4170444 L24.5281034,14.4170444 L24.5281034,7.7777586 C25.135,6.92403941 26.0076847,6.39273399 27.0889902,6.39273399 C28.5306404,6.39273399 29.5171182,7.30334973 29.5171182,9.12458129 L29.5171182,13.4874631 C29.5171182,14.037734 29.8964285,14.4170444 30.4274631,14.4170444 L31.4708374,14.4170444 L31.4708374,8.78293102 C31.4708374,6.27894089 29.8774631,4.53384237 27.5631281,4.53384237" id="Fill-6"></path>
                            <path d="M43.0994089,12.7857389 C42.150862,12.7857389 41.3161084,12.273399 41.3161084,10.9455419 L41.3161084,6.48756157 L44.0476847,6.48756157 L43.251133,4.74246305 L41.3161084,4.74246305 L41.3161084,0.853719209 L39.3623891,1.70716749 L39.3623891,4.74246305 L37.2946059,4.74246305 L37.2946059,6.48756157 L39.3623891,6.48756157 L39.3623891,10.9834729 C39.3623891,13.0891872 40.6523153,14.587734 42.9666503,14.587734 C43.5356157,14.587734 44.0097537,14.5118719 44.389335,14.3980788 L43.9907882,12.6909113 C43.7442365,12.7478079 43.4407882,12.7857389 43.0994089,12.7857389" id="Fill-7"></path>
                            <path d="M12.273399,3.98357143 L12.273399,4.74246305 L11.2492611,4.74246305 L10.0162315,6.48756158 L12.273399,6.48756158 L12.273399,14.4170444 L14.2273891,14.4170444 L14.2273891,6.48756158 L16.7313793,6.48756158 L16.7313793,4.74246305 L14.2273891,4.74246305 L14.2273891,4.0217734 C14.2273891,2.37123153 15.213867,1.82123153 16.1813793,1.82123153 C16.427931,1.82123153 16.6555173,1.85916256 16.8451724,1.91605911 L17.2437192,0.189655173 C16.9968966,0.094827586 16.5986207,0 16.0296552,0 C13.6012562,0 12.273399,1.80226601 12.273399,3.98357143" id="Fill-8"></path>
                        </g>
                    </g>
                </g>
            </g>
        </g>
    </g>
</svg>