<?xml version="1.0" encoding="UTF-8"?>
<svg width="91px" height="48px" viewBox="0 0 91 48" version="1.1" xmlns="http://www.w3.org/2000/svg" xmlns:xlink="http://www.w3.org/1999/xlink">
    <!-- Generator: sketchtool 64 (101010) - https://sketch.com -->
    <title>5F519A5F-1307-4A23-9A06-4C4F0EA073B9</title>
    <desc>Created with sketchtool.</desc>
    <defs>
        <filter x="-0.8%" y="-20.0%" width="101.5%" height="140.0%" filterUnits="objectBoundingBox" id="filter-1">
            <feOffset dx="0" dy="2" in="SourceAlpha" result="shadowOffsetOuter1"></feOffset>
            <feGaussianBlur stdDeviation="2" in="shadowOffsetOuter1" result="shadowBlurOuter1"></feGaussianBlur>
            <feColorMatrix values="0 0 0 0 0   0 0 0 0 0   0 0 0 0 0  0 0 0 0.4 0" type="matrix" in="shadowBlurOuter1" result="shadowMatrixOuter1"></feColorMatrix>
            <feMerge>
                <feMergeNode in="shadowMatrixOuter1"></feMergeNode>
                <feMergeNode in="SourceGraphic"></feMergeNode>
            </feMerge>
        </filter>
    </defs>
    <g id="Main-Pages" stroke="none" stroke-width="1" fill="none" fill-rule="evenodd">
        <g id="ATVE-homepage-solid-headercinema-display" transform="translate(-76.000000, -8.000000)">
            <g id="Header/desktop/tlc/1600/sign-in" filter="url(#filter-1)">
                <g id="header-desktop-tlc-1600-sign-in">
                    <g id="TLC-logo" transform="translate(80.000000, 10.000000)">
                        <g id="Group-5" transform="translate(2.500000, 6.666667)" fill="#FFFFFF">
                            <rect id="Rectangle" x="0" y="0" width="20.8333333" height="26.6666667"></rect>
                            <rect id="Rectangle-Copy" x="27.5" y="0" width="20.8333333" height="26.6666667"></rect>
                            <rect id="Rectangle-Copy-2" x="55" y="0" width="20.8333333" height="26.6666667"></rect>
                        </g>
                        <rect id="Rectangle-2" fill-opacity="0" fill="#E91D2D" fill-rule="nonzero" x="1.5158245e-12" y="7.57912251e-13" width="83" height="40"></rect>
                        <path d="M20.4330185,14.232923 C20.4330185,14.4086484 20.2869881,14.5521146 20.1107186,14.5521146 L15.8265443,14.5521146 C15.0764124,14.5521146 14.4702997,15.1601814 14.4702997,15.9117143 L14.4702997,29.4085055 C14.4702997,29.5856877 14.3286335,29.7281134 14.1518795,29.7281134 L11.1712834,29.7281134 C10.9945294,29.7281134 10.8523096,29.5856877 10.8523096,29.4085055 L10.8523096,15.9121999 C10.8523096,15.160667 10.2486191,14.5530859 9.49654941,14.5530859 L5.02752394,14.5530859 C4.85367658,14.5530859 4.70861926,14.409134 4.70861926,14.232923 L4.70861926,11.2455222 C4.70861926,11.0713231 4.85367658,10.9287587 5.02752394,10.9287587 L20.1107186,10.9287587 C20.2874034,10.9287587 20.4339141,11.0713231 20.4330185,11.245106 L20.4330185,14.232923 Z M23.1205891,3.37507799e-13 L2.73560418,3.37507799e-13 C1.23091115,3.37507799e-13 9.17784367e-13,1.2339626 9.17784367e-13,2.73799978 L9.17784367e-13,36.8886623 C9.17784367e-13,38.3960293 1.23091115,39.6295063 2.73560418,39.6295063 L23.1205891,39.6295063 C24.6205761,39.6295063 25.8548091,38.3960293 25.8548091,36.8886623 L25.8548091,2.73799978 C25.8548091,1.2339626 24.6205761,3.37507799e-13 23.1205891,3.37507799e-13 L23.1205891,3.37507799e-13 Z" id="Fill-2" fill="#E91D2D" fill-rule="nonzero"></path>
                        <path d="M47.0063765,29.4070209 C47.0063765,29.5842031 46.8680322,29.7286406 46.688856,29.7286406 L39.9289488,29.7286406 C37.075624,29.7286406 35.840768,27.8963237 35.840768,25.5155328 L35.840768,11.2450782 C35.840768,11.0708097 35.9844412,10.9283147 36.1606416,10.9283147 L39.1379157,10.9283147 C39.3146698,10.9283147 39.456336,11.0712954 39.456336,11.2450782 L39.456336,24.363987 C39.456336,25.3244063 40.2310362,26.1014691 41.190657,26.1014691 L46.688856,26.1014691 C46.8685167,26.1014691 47.0063765,26.2492365 47.0063765,26.4244763 L47.0063765,29.4070209 Z M51.4315941,4.16245279e-05 L31.0466784,4.16245279e-05 C29.5419162,4.16245279e-05 28.3110051,1.23393485 28.3110051,2.73797203 L28.3110051,36.8887039 C28.3110051,38.3960018 29.5419162,39.6295482 31.0466784,39.6295482 L51.4315941,39.6295482 C52.9315811,39.6295482 54.1658834,38.3960018 54.1658834,36.8887039 L54.1658834,2.73797203 C54.1658834,1.23393485 52.9315811,4.16245279e-05 51.4315941,4.16245279e-05 L51.4315941,4.16245279e-05 Z" id="Fill-5" fill="#E91D2D" fill-rule="nonzero"></path>
                        <path d="M74.1671236,15.9718897 C73.1364275,15.0503894 71.7734007,14.4871386 70.2841408,14.4871386 C67.0637434,14.4871386 64.449597,17.1008888 64.449597,20.3298512 C64.449597,23.5522232 67.0637434,26.1731883 70.2841408,26.1731883 C71.7734007,26.1731883 73.1378809,25.6079256 74.1671236,24.6846216 L74.1637324,24.6903797 C74.2900348,24.5680726 74.5038144,24.5680726 74.6276945,24.6903797 L76.7356627,26.8005411 C76.8466011,26.9155638 76.8514456,27.0989898 76.751511,27.2217825 C75.0648042,28.8143414 72.7872795,29.7964749 70.2831027,29.7964749 C65.0639453,29.7964749 60.8331294,25.5540217 60.8331294,20.3298512 C60.8331294,15.0980496 65.0639453,10.8579552 70.2831027,10.8579552 C72.7872795,10.8579552 75.0598906,11.8382155 76.751511,13.4356307 C76.8514456,13.5627246 76.8466011,13.7428206 76.7356627,13.8583289 L74.6276945,15.9718897 C74.5038144,16.0946824 74.2900348,16.0946824 74.1637324,15.968976 L74.1671236,15.9718897 Z M79.7480246,2.77498115e-05 L59.3630397,2.77498115e-05 C57.8582775,2.77498115e-05 56.6273663,1.23399035 56.6273663,2.73795815 L56.6273663,36.88869 C56.6273663,38.3959878 57.8582775,39.6295342 59.3630397,39.6295342 L79.7480246,39.6295342 C81.2478732,39.6295342 82.4821755,38.3959878 82.4821755,36.88869 L82.4821755,2.73795815 C82.4821755,1.23399035 81.2478732,2.77498115e-05 79.7480246,2.77498115e-05 L79.7480246,2.77498115e-05 Z" id="Fill-8" fill="#E91D2D" fill-rule="nonzero"></path>
                    </g>
                </g>
            </g>
        </g>
    </g>
</svg>